<mxfile host="app.diagrams.net" modified="2024-02-29T22:33:52.020Z" agent="Mozilla/5.0 (Windows NT 10.0; Win64; x64) AppleWebKit/537.36 (KHTML, like Gecko) Chrome/122.0.0.0 Safari/537.36" etag="zk-E9_mHQzjb2uriwRC4" version="21.6.9" type="github">
  <diagram name="Page-1" id="55a83fd1-7818-8e21-69c5-c3457e3827bb">
    <mxGraphModel dx="1500" dy="796" grid="1" gridSize="10" guides="1" tooltips="1" connect="1" arrows="1" fold="1" page="1" pageScale="1" pageWidth="1100" pageHeight="850" background="none" math="0" shadow="0">
      <root>
        <mxCell id="0" />
        <mxCell id="1" parent="0" />
        <mxCell id="69ecfefc5c41e42c-18" style="edgeStyle=none;rounded=0;html=1;labelBackgroundColor=none;endArrow=none;strokeWidth=2;fontFamily=Verdana;fontSize=22;exitX=0.5;exitY=0;exitDx=0;exitDy=0;" parent="1" source="IQw8jnEjvqHPAge0D9aP-7" target="69ecfefc5c41e42c-3" edge="1">
          <mxGeometry relative="1" as="geometry" />
        </mxCell>
        <mxCell id="IQw8jnEjvqHPAge0D9aP-10" value="" style="edgeStyle=orthogonalEdgeStyle;rounded=0;orthogonalLoop=1;jettySize=auto;html=1;" edge="1" parent="1" source="69ecfefc5c41e42c-1" target="IQw8jnEjvqHPAge0D9aP-7">
          <mxGeometry relative="1" as="geometry" />
        </mxCell>
        <mxCell id="69ecfefc5c41e42c-1" value="" style="html=1;labelBackgroundColor=#ffffff;image=img/lib/clip_art/networking/Wireless_Router_128x128.png;rounded=1;shadow=0;comic=0;strokeWidth=2;fontSize=12;sketch=0;outlineConnect=0;fontColor=#232F3E;gradientColor=none;fillColor=#D45B07;strokeColor=none;dashed=0;verticalLabelPosition=bottom;verticalAlign=top;fontStyle=0;aspect=fixed;pointerEvents=1;shape=mxgraph.aws4.container_registry_image;" parent="1" vertex="1">
          <mxGeometry x="415" y="610" width="65" height="65" as="geometry" />
        </mxCell>
        <mxCell id="69ecfefc5c41e42c-2" value="" style="html=1;labelBackgroundColor=default;image=img/lib/azure2/general/Folder_Blank.svg;rounded=1;shadow=0;comic=0;strokeWidth=2;fontSize=12;labelPosition=center;verticalLabelPosition=bottom;align=center;verticalAlign=top;shape=image;aspect=fixed;points=[];" parent="1" vertex="1">
          <mxGeometry x="490" y="100" width="80" height="80" as="geometry" />
        </mxCell>
        <mxCell id="69ecfefc5c41e42c-19" style="edgeStyle=none;rounded=0;html=1;labelBackgroundColor=none;endArrow=none;strokeWidth=2;fontFamily=Verdana;fontSize=22;exitX=0.5;exitY=0;exitDx=0;exitDy=0;" parent="1" source="IQw8jnEjvqHPAge0D9aP-3" target="69ecfefc5c41e42c-2" edge="1">
          <mxGeometry relative="1" as="geometry">
            <mxPoint x="600" y="250" as="sourcePoint" />
          </mxGeometry>
        </mxCell>
        <mxCell id="69ecfefc5c41e42c-3" value="" style="html=1;labelBackgroundColor=default;image=img/lib/azure2/general/Folder_Blank.svg;rounded=1;shadow=0;comic=0;strokeWidth=2;fontSize=12;labelPosition=right;verticalLabelPosition=bottom;align=center;verticalAlign=top;shape=image;aspect=fixed;points=[];" parent="1" vertex="1">
          <mxGeometry x="490" y="360" width="80" height="80" as="geometry" />
        </mxCell>
        <mxCell id="IQw8jnEjvqHPAge0D9aP-2" value="&lt;font style=&quot;font-size: 24px;&quot;&gt;Guardado de archivos de&amp;nbsp; registro entidad/encuesta en la carpeta upload/register&lt;/font&gt;" style="text;html=1;align=center;verticalAlign=middle;resizable=0;points=[];autosize=1;strokeColor=none;fillColor=none;" vertex="1" parent="1">
          <mxGeometry x="65" y="20" width="890" height="40" as="geometry" />
        </mxCell>
        <mxCell id="IQw8jnEjvqHPAge0D9aP-5" style="edgeStyle=orthogonalEdgeStyle;rounded=0;orthogonalLoop=1;jettySize=auto;html=1;exitX=0.5;exitY=1;exitDx=0;exitDy=0;entryX=0.5;entryY=0;entryDx=0;entryDy=0;" edge="1" parent="1" source="IQw8jnEjvqHPAge0D9aP-3" target="69ecfefc5c41e42c-3">
          <mxGeometry relative="1" as="geometry" />
        </mxCell>
        <mxCell id="IQw8jnEjvqHPAge0D9aP-3" value="Register" style="text;whiteSpace=wrap;fontSize=20;" vertex="1" parent="1">
          <mxGeometry x="490" y="240" width="80" height="40" as="geometry" />
        </mxCell>
        <mxCell id="IQw8jnEjvqHPAge0D9aP-4" value="Upload" style="text;whiteSpace=wrap;fontSize=20;" vertex="1" parent="1">
          <mxGeometry x="495" y="70" width="70" height="40" as="geometry" />
        </mxCell>
        <mxCell id="IQw8jnEjvqHPAge0D9aP-7" value="Archivo (Guid).extension" style="text;whiteSpace=wrap;fontSize=20;" vertex="1" parent="1">
          <mxGeometry x="415" y="520" width="230" height="40" as="geometry" />
        </mxCell>
        <mxCell id="IQw8jnEjvqHPAge0D9aP-9" value="" style="edgeStyle=orthogonalEdgeStyle;rounded=0;orthogonalLoop=1;jettySize=auto;html=1;" edge="1" parent="1" source="IQw8jnEjvqHPAge0D9aP-8" target="IQw8jnEjvqHPAge0D9aP-7">
          <mxGeometry relative="1" as="geometry" />
        </mxCell>
        <mxCell id="IQw8jnEjvqHPAge0D9aP-8" value="" style="shape=image;html=1;verticalAlign=top;verticalLabelPosition=bottom;labelBackgroundColor=#ffffff;imageAspect=0;aspect=fixed;image=https://cdn0.iconfinder.com/data/icons/phosphor-bold-vol-3-1/256/microsoft-word-logo-duotone-128.png" vertex="1" parent="1">
          <mxGeometry x="590" y="610" width="68" height="68" as="geometry" />
        </mxCell>
      </root>
    </mxGraphModel>
  </diagram>
</mxfile>
